# xmcd CD database file
#
# Track frame offsets:
#	150
#	14606
#	27436
#	42826
#	58903
#	70373
#	84789
#	95072
#	108103
#	123899
#	138492
#	152421
#	164671
#	175841
#	186945
#	200117
#	213783
#	228159
#	237645
#	249719
#	260223
#	274565
#	286249
#
# Disc length: 3968 seconds
#
# Revision: 2
# Processed by: cddbd v1.5.2PL0 Copyright (c) Steve Scherf et al.
# Submitted via: CDex 1.73
#
DISCID=510f7e17
DTITLE=Various Artist - Jazz in the Charts 26/100 (1936) (3)
DYEAR=1936
DGENRE=Jazz
TTITLE0=Welcome Stranger - Jimmie Dorsey and His Orchestra
TTITLE1=Stardust - Benny Goodman and His Orchestra
TTITLE2=What's the Reason (I'm Not Pleasin' You) - Jimmie Dorsey and His Orchestra
TTITLE3=Stardust - Tommy Dorsey and His Orchestra
TTITLE4=You Can't Pull the Wool Over My Eyes - Benny Goodman and His Orchestra
TTITLE5=Tormented - Wingy Manone and His Orchestra
TTITLE6=Is It True What They Say AboutDixie? - Willie Bryant and His Orchestra
TTITLE7=Oh Babe! Maybe Soemday - Duke Ellington and His Orchestra
TTITLE8=Keyhole Blues - Louis Armstrong and His Hot Seven
TTITLE9=Jazz Lips - Duke Ellington and His Cotton Club Orchestra
TTITLE10=On the Beach at Bali Bali - Tommy Dorsey and His Orchestra
TTITLE11=These Foolish Things - Benny Goodman and His Orchestra
TTITLE12=China Boy - Benny Goodman Trio
TTITLE13=Where There's You, There's Me - Fletcher Henderson and His Orchestra
TTITLE14=It's a Sin to Tell a Lie - Fats Waller and His Rhythm
TTITLE15=Until the Real Thing Comes Along (It Will Have to Do) - Andy Kirk and His Twelve Clouds Of Joy
TTITLE16=Stomping at the Savoy - Benny Goodman and His Orchestra
TTITLE17=If I Had My Way - Bunny Berigan and His Boys
TTITLE18=No Regrets - Tommy Dorsey and His Orchestra
TTITLE19=Let's Sing Again - Fats Waller and His Rhythm
TTITLE20=Lyin' to Myself - Louis Armstrong and His Orchestra
TTITLE21=San Francisco - Tommy Dorsey and His Orchestra
TTITLE22=Sing Me a Swing Song (And Let MeDance) - Chick Webb and His Orchestra - Vocals Ella Fitzgerald
EXTD=YEAR: 1936
EXTT0=
EXTT1=
EXTT2=
EXTT3=
EXTT4=
EXTT5=
EXTT6=
EXTT7=
EXTT8=
EXTT9=
EXTT10=
EXTT11=
EXTT12=
EXTT13=
EXTT14=
EXTT15=
EXTT16=
EXTT17=
EXTT18=
EXTT19=
EXTT20=
EXTT21=
EXTT22=
PLAYORDER=
